<svg id="Layer_1" data-name="Layer 1" xmlns="http://www.w3.org/2000/svg" viewBox="0 0 3000 3000"><defs><style>.cls-1{fill:#414e64;}</style></defs><path class="cls-1" d="M2146,1200.42l-96.91-117.25,25.28-150a46.91,46.91,0,0,0-29.85-51.76L1902,828.33l-53.1-142.52a46.92,46.92,0,0,0-51.73-29.88l-150,25.28-117.24-96.88a47,47,0,0,0-59.78,0l-117.24,96.88-150-25.28a46.92,46.92,0,0,0-51.73,29.88l-53.1,142.52-142.53,53.1a46.87,46.87,0,0,0-29.85,51.76l25.28,150L854,1200.42a47,47,0,0,0,0,59.75L951,1377.42l-25.28,150a46.91,46.91,0,0,0,29.85,51.76l142.53,53.1,26.71,71.6V2379.5a46.9,46.9,0,0,0,78.83,34.36L1500,2138.61l296.43,275.25a46.9,46.9,0,0,0,78.82-34.36V1703.86l26.69-71.63,142.53-53.09a46.88,46.88,0,0,0,29.85-51.76l-25.28-150L2146,1260.15A46.94,46.94,0,0,0,2146,1200.42ZM1218.57,1802l46.91-7.91v434.29l-46.91,43.55Zm249.52,238.24-155.7,144.58V1786.18l40.5-6.82,117.24,96.88a46.93,46.93,0,0,0,59.76,0l117.24-96.88,40.51,6.82v398.63l-155.71-144.58A46.94,46.94,0,0,0,1468.09,2040.23Zm266.45,188.14V1794.08l46.91,7.91v469.93Zm228.53-894.18a47,47,0,0,0-10.08,37.67l22.39,132.91-126.29,47a46.89,46.89,0,0,0-27.58,27.58l-47,126.3-132.91-22.4a47,47,0,0,0-37.66,10.09L1500,1779.24l-103.9-85.86a46.93,46.93,0,0,0-37.66-10.09l-132.91,22.4-47-126.3a46.89,46.89,0,0,0-27.58-27.58l-126.29-47L1047,1371.86a46.9,46.9,0,0,0-10.08-37.67l-85.84-103.9L1037,1126.4a47,47,0,0,0,10.09-37.67l-22.4-132.91,126.3-47a46.94,46.94,0,0,0,27.58-27.58l47-126.3,132.91,22.4a46.79,46.79,0,0,0,37.67-10.09L1500,681.35l103.9,85.86a46.75,46.75,0,0,0,37.66,10.09l132.91-22.4,47,126.3a46.94,46.94,0,0,0,27.58,27.58l126.3,47L1953,1088.73a46.9,46.9,0,0,0,10.08,37.67l85.84,103.89ZM1267.85,998.13C1163.93,1102,1142,1264,1214.56,1392a23.45,23.45,0,1,1-40.8,23.12c-82.89-146.25-57.84-331.34,61-450.11s303.86-143.81,450.09-61a23.45,23.45,0,0,1-23.13,40.81C1533.74,872.31,1371.79,894.21,1267.85,998.13Zm558.44,47.4c82.89,146.25,57.84,331.35-61,450.11-71.93,72-168.26,109.51-265.49,109.51a373.9,373.9,0,0,1-184.6-48.58,23.45,23.45,0,1,1,23.12-40.8c127.94,72.54,289.86,50.63,393.8-53.29s125.83-265.84,53.29-393.82a23.46,23.46,0,0,1,40.83-23.13Zm-94.12-47.42a23.45,23.45,0,1,1,33.17,0A23.42,23.42,0,0,1,1732.17,998.11Zm-464.32,464.35a23.45,23.45,0,1,1-33.16,0A23.42,23.42,0,0,1,1267.85,1462.46Zm393.4-255.67-56.66,63.84,7.79,84.86a23.48,23.48,0,0,1-32.49,23.76L1500,1345.54l-79.9,33.73a23.47,23.47,0,0,1-32.49-23.76l7.79-84.85-56.66-63.84a23.44,23.44,0,0,1,12.4-38.44l84.2-18.9,44.56-73.62a23.45,23.45,0,0,1,40.13,0l44.56,73.62,84.2,18.9A23.41,23.41,0,0,1,1661.25,1206.79Z"/></svg>