<svg id="Layer_1" data-name="Layer 1" xmlns="http://www.w3.org/2000/svg" viewBox="0 0 3000 3000"><defs><style>.cls-1{fill:#414e64;}</style></defs><path class="cls-1" d="M2863.59,1669l-138.44-415.32a292.62,292.62,0,0,0-278-200.34H2243.91a146.16,146.16,0,0,0-109.08-48.84H1597.67v97.67h293v781.33h-1758V1102.15h293v-97.67H83.83A48.84,48.84,0,0,0,35,1053.32V2176.48a48.84,48.84,0,0,0,48.83,48.84H446.12c53.88,123.55,197.72,180,321.28,126.15a244.09,244.09,0,0,0,126.15-126.15h1212.9c53.88,123.55,197.73,180,321.28,126.15a244.05,244.05,0,0,0,126.15-126.15h362.29a48.84,48.84,0,0,0,48.83-48.84V1840.22A195.84,195.84,0,0,0,2863.59,1669Zm-416.41-518a195.08,195.08,0,0,1,185.31,133.57l113.24,339.71-367.17-131.13a146.82,146.82,0,0,1-97.23-138V1151Zm-263.51,0v204.18a244.69,244.69,0,0,0,162,229.95l456.81,163.14a97.86,97.86,0,0,1,64.81,92v92.1H2703.71a434.92,434.92,0,0,0-392.35-244.17h-323v-586h146.5A48.89,48.89,0,0,1,2183.67,1151Zm-2051,830.17h293v146.5h-293Zm537.16,293a146.5,146.5,0,1,1,146.5-146.5A146.5,146.5,0,0,1,669.83,2274.15ZM914,2127.65v-146.5h976.67v146.5Zm1416.17,146.5a146.5,146.5,0,1,1,146.5-146.5A146.5,146.5,0,0,1,2330.17,2274.15Zm244.16-146.5c0-134.85-109.31-244.17-244.16-244.17S2086,1992.8,2086,2127.65h-97.67V1785.82h323a337.94,337.94,0,0,1,315.3,213.47A48.83,48.83,0,0,0,2672,2030h195.33v97.67Z"/><circle class="cls-1" cx="2330.17" cy="2127.65" r="48.83"/><circle class="cls-1" cx="669.83" cy="2127.65" r="48.83"/><path class="cls-1" d="M557.87,1722.68l144.76-144.77c209,170.61,516.67,139.52,687.28-69.45a488.44,488.44,0,0,0,71.69-498.74l-89.95,38c84,198.78-9.13,428-207.9,511.93a390.71,390.71,0,0,1-391.6-51.3L836.56,1444H962.83v97.67h97.67V1435.58a146.39,146.39,0,0,0,39.41-254.94l483.46-483.46-69.07-69.06L1320.74,821.68c-209-170.62-516.68-139.54-687.3,69.42a488.46,488.46,0,0,0-67,509.61l89-40.22c-88.74-196.67-1.23-428,195.45-516.77a390.68,390.68,0,0,1,400.26,47.53l-64.4,64.4H1060.5V858H962.83V964.05a146.41,146.41,0,0,0-39.41,255L488.8,1653.62Zm502.63-425.2a48.89,48.89,0,0,1-48.83,48.84H934.23l94.52-94.52A48.86,48.86,0,0,1,1060.5,1297.48Zm-97.67-195.33a48.89,48.89,0,0,1,48.84-48.83h77.43l-94.52,94.52A48.88,48.88,0,0,1,962.83,1102.15Z"/></svg>