<svg id="Layer_1" data-name="Layer 1" xmlns="http://www.w3.org/2000/svg" viewBox="0 0 3000 3000"><defs><style>.cls-1{fill:#414e64;}</style></defs><path class="cls-1" d="M2346,1773.59c-66.12,0-146,10.26-236,22.67-119.19,16.43-234.16,32.31-298.22,79l-134.27,21.9c73.07-36.27,170.23-72.57,297.82-101a390.18,390.18,0,0,0,57.23,4.16h0a455.19,455.19,0,0,0,60.55-4.14c60.14-8.1,116-27.58,157.4-54.83,53.65-35.34,80.66-83.28,74.13-131.56-10.05-74.41-93.3-122.5-212.12-122.5a455.07,455.07,0,0,0-60.55,4.14c-146.08,19.7-243.48,98.08-231.58,186.41a107.43,107.43,0,0,0,6.8,25.61c-67,15.22-252.43,64.25-357.9,161.17l-252.65,10.24c59.07-102.66,230.8-234.24,232.66-235.66a24.21,24.21,0,0,0,7.7-10c4.26-10.26,7.55-18.54-55-159.87-1.67-7.79-5.3-14.61-10.72-21.17,83.56-22.41,205.22-60.26,208.56-149.78a22.79,22.79,0,0,0-.17-3.78c-5.59-46.63-62.17-113.3-97.92-144.13,52.76-7.65,94.14-24,124.46-49.66a23.26,23.26,0,0,0,3.54-3.68c21-27.11,47.07-151.28,21.46-244.52a117.2,117.2,0,0,0-1-20.91c-13.85-97-103.27-132-243-156.89-101.3-18.11-333.85-8.26-438.37,96.68-31.22,31.34-48.13,68.07-51.13,109.31h0c-9,71.78-24.59,243,23.23,281.77,70.42,57.16,212.65,89.32,326.9,115.19l4.79,1.09c-25,14.45-40,30.61-43.73,51a50.93,50.93,0,0,0-.39,8.35,23.9,23.9,0,0,0-1.25,19.49c6.43,17,9.58,39.2,12.92,62.67,6.44,45.38,14,96.06,48.45,130-19.46,17.28-40.63,34.73-62.83,52.81-91.81,74.85-195.71,159.65-213,279.92l-402,16.29a24.21,24.21,0,0,0-12,3.75l-133.32,84.61a24.18,24.18,0,0,0,11.16,44.55l18,1.31a23.54,23.54,0,0,0-9.34,10.09,24.22,24.22,0,0,0,12.08,32L619,2130.86a24.18,24.18,0,0,0,10,2.15c.34,0,.65,0,1,0l372.81-15.13c-8.3,33.71-27.3,103-53.94,153.58a23.89,23.89,0,0,0-25,16.14l-32.16,98.28a24.19,24.19,0,0,0,15.42,30.52l175,57.67a24.22,24.22,0,0,0,29.69-13.17l46.35-104.25a24.12,24.12,0,0,0-11.81-31.61c16.7-35.79,39-104.33,40.1-214.59l268.89-10.91a23.52,23.52,0,0,0,4.84-.68c95.06-23.5,260.83-56.89,301.32-46.51a57.21,57.21,0,0,0,19.94,1.4c44.55,73,155.25,117.69,301.85,117.69h0a736.21,736.21,0,0,0,99.93-7c97.43-13.46,187.41-45,253.28-89,78.8-52.54,117.08-118.46,107.81-185.55C2533.75,1812.72,2467,1773.59,2346,1773.59ZM2068.23,1611.4a335.39,335.39,0,0,1,44.36-3.05c47.07,0,76.48,10.5,88.53,18.19C2188,1641.09,2146,1667,2077,1676.3a335.28,335.28,0,0,1-44.36,3h0c-47,0-76.45-10.48-88.5-18.17C1957.25,1646.63,1999.21,1620.71,2068.23,1611.4ZM1323.78,1517c-21.08-19.89-28.34-54-33.59-89.18,3.26,2.64,6.48,5.3,9.8,7.89,8.76,6.85,16.7,12.83,23.76,18.15,13.63,10.26,29,21.86,31,24.35a.68.68,0,0,1,0,.12C1353.35,1485.33,1333.53,1506.68,1323.78,1517Zm227.63-218.41a45.43,45.43,0,0,1-1.82,8.79L1522,1285.63a12.1,12.1,0,0,0-15,19l30.69,24.2a108.57,108.57,0,0,1-19.46,17.33l-34-32.72a12.1,12.1,0,0,0-16.77,17.45l29.4,28.24c-5.2,2.78-10.57,5.47-16.16,8l-23.48-33.81a12.1,12.1,0,0,0-19.86,13.82l20.47,29.5c-7.16,2.73-14.42,5.35-21.68,7.79l-8.21-30.68a12.1,12.1,0,1,0-23.38,6.24l8.5,31.75c-5.93,1.79-11.74,3.49-17.43,5.06l-8.59-32.14a12.09,12.09,0,1,0-23.37,6.24l8.63,32.26c-3.41.92-6.8,1.82-9.94,2.64l-1.24.34-10.69-40a12.1,12.1,0,0,0-23.38,6.25l7.74,28.94c-1.74-1.33-3.09-2.32-4.91-3.75-52-40.63-53.89-55.37-53.24-58.93,1.38-7.53,18.15-24.59,114.54-54.38,46.51-13.6,99-33.61,107.35-69.14C1523.36,1242.8,1547.73,1277.43,1551.41,1298.6ZM1592.48,1066c-.66.51-1.46.92-2.11,1.43l-2.32-19.8a12.1,12.1,0,1,0-24,2.84l3.6,31a169.7,169.7,0,0,1-16.58,7.57l-5.8-37.73a12.1,12.1,0,0,0-23.91,3.68l6.38,41.53a298.76,298.76,0,0,1-32.55,6.32l-.46-36.31a12.1,12.1,0,0,0-12.1-12h-.14a12.11,12.11,0,0,0-12,12.25l.49,38.81c-4.29.37-9,.44-13.38.68,0-.19,0-.41,0-.6l-9.85-36.84a12.1,12.1,0,0,0-23.38,6.25l8.6,32.09c-7.63,0-15.71-.2-23.77-.42l-2.69-35.23a12.1,12.1,0,1,0-24.12,1.86l2.46,32.29c-6.87-.42-13.77-.83-20.95-1.43l0-35a12.1,12.1,0,0,0-12.1-12.1h0a12.1,12.1,0,0,0-12.1,12.1l0,36.18c-4.72-1.3-9.64-2.63-14.55-3.94l-4.64-47.34a12.1,12.1,0,0,0-24.08,2.35l3.77,38.45q-12.71-3.2-26.16-6.48l8.06-32.09a12.11,12.11,0,0,0-23.48-5.91l-8.13,32.38c-4-.94-8.06-1.88-12.12-2.8l.07-27.33a12.1,12.1,0,0,0-12.07-12.12h0a12.12,12.12,0,0,0-12.1,12.08l0,21.8-6.73-1.55c-1.35-.26-2.56-.58-3.92-.87a23.48,23.48,0,0,0,1-10.19c-4.43-34.56,1.69-80.34,8.88-117.49,35.09,25,93.07,38.82,148.2,44.89.15,0,.27.15.44.17.82.12,1.64.15,2.47.19,54.67,5.79,105.73,4.07,127.15-1.67,60-12.85,97.94-33.27,121.77-55.58C1614.43,993.1,1600.29,1051.78,1592.48,1066ZM1165.6,936.81c-7.31,38.28-13.31,85.21-9.73,124.07q-64.14-17.2-106.55-40.61C1072.36,993.68,1120.3,942.35,1165.6,936.81Zm271-70.5a23.71,23.71,0,0,0,2.16,6c2.83,4.72,6.46,26.4,4.14,64.54a23.63,23.63,0,0,0,1.13,8.11c-14.73.41-32,0-50.21-1.31l13.77-86.58C1418.11,860,1427.86,863.14,1436.62,866.31Zm-90.94,72.12c-50.63-7.48-98.81-21.3-114.32-42.31-2.79-3.75-7.94-10.74,2.92-28.14,17-29.4,72.48-30.49,126-21.47ZM1003.17,805.69c86.59-86.93,300.25-100.22,395.58-83.2,138.4,24.7,193.85,55.78,203.26,114.2a24,24,0,0,0-.8,17.45c.39,1.11.65,2.3,1,3.41-3.85,25.94-23.67,44.7-48.35,58V898.64a12.11,12.11,0,0,0-24.21,0v27.9c-1.74.68-3.5,1.34-5.25,2V893.39a12.1,12.1,0,0,0-24.2,0v42.76c-3,.83-6,1.58-9,2.3,2.64-45.35-1.4-76.57-12-92.76A24,24,0,0,0,1464.33,825c-58.95-23.69-222.71-66.5-271.57,18a92,92,0,0,0-9.68,21c-.15.46-.51.76-.63,1.21-.37,1.26-2.81,9.66-6.1,22.78a113.25,113.25,0,0,0-12.78.36l-7.41-27.71a12.09,12.09,0,1,0-23.37,6.24l6.94,25.92a156.06,156.06,0,0,0-17.54,6.44l-7.38-27.56a12.1,12.1,0,1,0-23.38,6.24l8.73,32.67c-4.09,2.47-8.13,5.06-12.12,7.82l-11.74-29.58a12.09,12.09,0,0,0-22.48,8.93l14.21,35.8q-5.92,4.86-11.57,10L1045,913.67a12.11,12.11,0,0,0-22.61,8.66l15.08,39.45c-1.94,2-3.87,4-5.74,5.91l-18-28.78a12.09,12.09,0,0,0-20.49,12.85l21.61,34.46c-1.94,2.21-3.8,4.36-5.64,6.51-23.28-20.45-37-43.58-40.88-69.36C959.68,876.4,971.1,837.87,1003.17,805.69ZM957,1008.63c64.08,75.24,191.32,101.67,240.16,111.66l18.76,4.31c177.27,40.44,226.25,65.73,234.86,80.18-3.34,4.06-17.64,16.77-73.57,33.13-5.42,1.67-10.26,3.31-15.41,5l3.82-14.54a12.09,12.09,0,1,0-23.38-6.15l-5.71,21.75c-5.08-1.23-10.28-2.46-15.66-3.7L1325,1215a12.08,12.08,0,0,0-10-13.89,11.9,11.9,0,0,0-13.89,10l-3.9,23.74-18.61-4.21c-1.4-.31-2.9-.65-4.3-1l4.18-24.49a12.09,12.09,0,1,0-23.83-4.09l-4,23.21c-7.24-1.65-14.57-3.37-22-5.09l4.77-22.7a12.11,12.11,0,0,0-23.7-5l-4.62,22.07q-12.45-3-25-6.17l-.29-24.2c-.08-6.68-5.35-13.14-12.25-12a12.08,12.08,0,0,0-11.95,12.24l.19,17.62q-14.62-3.91-29.09-8.11l-.34-20.62c-.12-6.68-4.91-13-12.29-11.9a12.1,12.1,0,0,0-11.91,12.29l.22,12.85c-10.12-3.17-20-6.46-29.67-9.87l-1.07-28.68c-.24-6.68-5.78-12.37-12.53-11.64a12.08,12.08,0,0,0-11.64,12.54l.7,18.61c-2.57-1-5-2.09-7.5-3.13l-3.83-45.23a12.09,12.09,0,0,0-24.1,2l2.71,31.87c-3.92-1.94-7.62-3.92-11.3-5.93l1.67-45.35a12.1,12.1,0,0,0-11.64-12.54,12,12,0,0,0-12.54,11.64l-1.16,31.73c-3.1-2.18-6.22-4.38-9-6.63C960.91,1116,955.88,1069.5,957,1008.63Zm299.48,632.1c36.61-29.87,71.22-58.06,100.07-87.88,7.3-7.72,13.89-14.76,19.7-21.41,13.69,32.23,26,62.6,31.58,78.84-2.5,2-5.47,4.33-8.57,6.83l-16.17-22a12.1,12.1,0,0,0-19.53,14.3l16.92,23.11q-9.18,7.59-19.8,16.65l-23.45-18.63a12.11,12.11,0,0,0-15,19l19.89,15.81q-12.4,10.89-25.62,23l-19.56-16.5a12.11,12.11,0,1,0-15.61,18.51l17.33,14.62q-10.66,10.15-21.39,20.86l-22.46-21.18a12.1,12.1,0,1,0-16.6,17.62L1260.2,1743q-9.51,9.87-18.7,20l-32.07-15.78a12.09,12.09,0,1,0-10.67,21.7l26.16,12.88c-6.51,7.62-12.68,15.29-18.66,23l-37.44-17.62a12.11,12.11,0,1,0-10.31,21.92l33.08,15.56c-5.37,7.65-10.23,15.25-14.73,22.8l-38.22-10.6a12.11,12.11,0,0,0-6.48,23.33l32.93,9.15c-1.25,2.61-2.54,5.25-3.65,7.84l-99,4C1080.92,1784.07,1170,1711.2,1256.43,1640.73ZM619.35,1947.52l861.05-34.88a24.19,24.19,0,0,0,15.9-6.82c104.35-101.45,318.38-150.34,358.46-158.76l6,2.25a163,163,0,0,0,27,18.71c-314.88,85.43-424.82,216.35-448.42,249.77-10.52,2.64-42.13,7.34-133.41,7.34-212.39,0-593.08-24.81-752.4-35.87Zm-92.54,88.42c98.76,7,327.24,22.39,533.23,31.17L633.8,2084.39Zm549.73,385.25L945.28,2378l18-55,138.59,41.34Zm61-288-32.36-.19h-.07a12.1,12.1,0,0,0-.07,24.2l31,.19c-.68,8.83-1.38,17.52-2.35,25.61l-43.32-3.42a12.35,12.35,0,0,0-13,11.11,12.13,12.13,0,0,0,11.11,13l41.94,3.32a456.51,456.51,0,0,1-10.91,50.12l-37.15-9.27a12.1,12.1,0,1,0-5.86,23.47l35.79,8.93a262.31,262.31,0,0,1-13.67,32.41l-101.11-30.16c30.57-62.87,49.93-141.74,55.61-166.74l84.83-3.44C1137.84,2119.41,1137.84,2126.6,1137.58,2133.23Zm342.36-88.86c9-12.18,34.29-42.69,85.33-80a7.22,7.22,0,0,0,.8,0l201.54-32.87c-7.09,19-9.75,40.66-6.22,66.24.27,2,.88,3.87,1.21,5.83C1699.88,1995.89,1547.75,2028.61,1479.94,2044.37Zm889.49-69.6c-50.24,33.51-124.12,59-202.68,69.77a614.74,614.74,0,0,1-83.42,5.83h0c-124,0-198.2-40.85-202.09-69.12-4.24-30.76,158.1-53.12,245.32-65.15,85.47-11.78,161-21.53,219.42-21.53,62.68,0,77.86,11.59,78.51,11.85C2426.45,1920.9,2410.21,1947.59,2369.43,1974.77Z"/><path class="cls-1" d="M1375.69,2008.14a43.1,43.1,0,0,0,23.11-6.78c19.38-12.32,25.68-37.32,14-55.8-11.32-17.84-37.51-23-56.41-11.09-19.38,12.32-25.6,37.34-13.94,55.74A38.89,38.89,0,0,0,1375.69,2008.14Zm-2.88-47.63a5.12,5.12,0,0,1,2.85-.77,9.48,9.48,0,0,1,7.6,4.55c2.76,4.35,1.72,9.31-1,11.06-1.65,1.06-7.77.26-10.39-3.85S1370.15,1962.18,1372.81,1960.51Z"/><path class="cls-1" d="M507.66,1795.29a24.13,24.13,0,0,0,12-3.17c17.74-10.11,435.49-248.63,535.63-320.7,65.17-46.9,71.54-100.65,49.88-130.76s-74.66-41.14-139.81,5.76c-100.16,72.07-459,392.46-474.21,406.06a24.69,24.69,0,0,0,16.53,42.81ZM993.59,1385.7c23.25-16.72,42.66-22.77,55.73-22.77,8.2,0,13.94,2.39,16.55,6,6.73,9.37-1,35.91-38.84,63.19-52.37,37.68-199,125-325,198.64C811.89,1534.66,941.24,1423.38,993.59,1385.7Z"/><path class="cls-1" d="M1044.26,1384.47a24.16,24.16,0,0,0-33.78-5.52L968.73,1409a24.2,24.2,0,1,0,28.24,39.3l41.75-30A24.23,24.23,0,0,0,1044.26,1384.47Z"/><path class="cls-1" d="M1920.15,603.37c0,1.14.48,2.13.56,3.24a22.53,22.53,0,0,0-.56,2.81v60.74c0,31,34.44,49.64,76.84,61a23.84,23.84,0,0,0-1.67,8.3v386.39a23.39,23.39,0,0,0-11.84.44c-42,13.52-63.31,32.79-63.33,57.33,0,1.13.48,2.13.56,3.24a22.17,22.17,0,0,0-.56,2.81v60.74c0,76.45,208.87,78.65,232.69,78.65s232.71-2.2,232.71-78.65v-66.79c0-24.28-20.89-43.44-62.05-57a23.44,23.44,0,0,0-13.58,0V739.5a23.79,23.79,0,0,0-1.64-8.18c42.59-11.37,77.27-30.06,77.27-61.13V603.4c0-76.45-208.87-78.66-232.71-78.66S1920.15,526.92,1920.15,603.37Zm341.37,398.2c-66.6,8.78-143.72,15.27-217.8,1.13V970.54a558.07,558.07,0,0,0,93.75,7.62c43.34,0,85.31-4.16,124.05-9.14Zm-217.8,50.29a559.12,559.12,0,0,0,93.75,7.62c43.34,0,85.31-4.16,124.05-9.15v32.5c-66.6,8.79-143.72,15.27-217.8,1.14Zm217.8-131.58c-66.6,8.78-143.72,15.27-217.8,1.13V889.28a559.12,559.12,0,0,0,93.75,7.62c43.34,0,85.31-4.16,124.05-9.15Zm-217.8,212.86a558.09,558.09,0,0,0,93.75,7.63c43.34,0,85.31-4.16,124.05-9.15v18c-75.26,9.84-155,8.51-217.8-3.56ZM2261.52,839c-66.6,8.78-143.72,15.27-217.8,1.13V808a559.12,559.12,0,0,0,93.75,7.62c43.34,0,85.31-4.16,124.05-9.15Zm-108.68,441.68c-109.12,0-173-21.22-184.29-33.11v-12.19c63.21,25.8,167.86,26.88,184.29,26.88s121.07-1.08,184.31-26.88v12.19C2325.85,1259.42,2262,1280.67,2152.84,1280.67Zm180.61-96.9c-18.06,12.1-80.16,30.11-180.61,30.11s-162.51-18-180.59-30.11c4.29-2.83,12.13-6.92,26.07-11.4a26.3,26.3,0,0,0,3.82-2.13c.49.51,1.07.85,1.57,1.31a24,24,0,0,0,18.59,19.72c40.54,8.91,88.45,13.44,138.21,13.44a826.63,826.63,0,0,0,116.55-8.21,18.69,18.69,0,0,0,2.69-1,23.28,23.28,0,0,0,6,1.21,24.13,24.13,0,0,0,24.08-23.57C2322.17,1177.33,2329.45,1181.13,2333.45,1183.77ZM2261.52,757.7c-66.6,8.78-143.72,15.29-217.8,1.14V740.76c49.92,7.52,98.37,8.06,109.12,8.06s58.9-.51,108.68-8Zm-108.68-57.28c-109.12,0-173-21.23-184.29-33.11v-12.2c63.21,25.82,167.86,26.91,184.29,26.91s121.07-1.09,184.31-26.88v12.19C2325.85,679.19,2262,700.42,2152.84,700.42Zm0-66.8c-100.85,0-163-18.15-180.83-30.25,17.76-12.1,80-30.25,180.83-30.25s163.06,18.13,180.82,30.25C2315.9,615.5,2253.68,633.62,2152.84,633.62Z"/></svg>